<?xml version="1.0" encoding="utf-8" ?>	<!-- Generator: Assembly 2.4 - http://assemblyapp.co -->	<svg version="1.1" xmlns="http://www.w3.org/2000/svg" xmlns:xlink="http://www.w3.org/1999/xlink" width="4096.00" height="4096.00" viewBox="0 0 4096.0 4096.0">		<g id="document" transform="scale(1.0 1.0) translate(2048.0 2048.0)">			<g>				<path d="M1419.99,1004.13 C1610.79,977.24 1826.85,1002.51 2022.73,1018.44 C2362.08,1044.65 2446.68,1098.87 2446.68,1098.87 C2446.68,1098.87 2573.56,1767.9 2260.42,2081.04 C2199.15,2142.31 2133.14,2189.53 2065.48,2225.61 C2107.1,3157.7 1322.38,3969.47 285.9,4052.08 C-771.154,4136.33 -1689.78,3430.27 -1765.91,2475.06 C-1771.91,2399.71 -1772.5,2325.05 -1767.96,2251.42 C-1788.83,2242.86 -1809.73,2233.29 -1830.61,2222.63 C-2225.07,2021.35 -2310.75,1345.8 -2310.75,1345.8 C-2310.75,1345.8 -2247,1268.12 -1932.28,1138.52 C-1636.76,1015.41 -1297.95,852.223 -1020.7,962.383 C-732.876,757.883 -379.091,623.988 10.2119,592.961 C546.379,550.23 1046.93,710.826 1419.99,1004.13 L1419.99,1004.13 Z " fill="#fffb8b" fill-opacity="0.56" />				<path d="M1587.03,2052.75 L1107.67,1512.85 L450.3,1817.64 L1587.03,2052.75 Z " fill="#ffffff" fill-opacity="1.00" />				<path d="M-891.968,512.583 C-891.968,512.583 -611.907,-245.365 -792.05,-428.658 C-1011.98,-650.607 -1367.03,-537.974 -1668.19,-462.134 C-1949.35,-392.54 -2012.75,-335.165 -2012.75,-335.165 C-2012.75,-335.165 -2025.42,244.169 -1718.67,463.08 C-1344.4,730.185 -891.968,512.583 -891.968,512.583 Z " fill="#e9b7b7" fill-opacity="1.00" stroke-width="54.79" stroke="#000000" stroke-linecap="square" stroke-linejoin="miter" />				<path d="M909.203,72.1756 C909.203,72.1756 615.878,-680.739 792.775,-867.166 C1008.77,-1092.94 1365.75,-986.56 1668.2,-916.018 C1950.53,-851.372 2014.93,-795.119 2014.93,-795.119 C2014.93,-795.119 2037.76,-216.096 1734.91,8.16673 C1365.38,281.801 909.203,72.1756 909.203,72.1756 Z " fill="#e9b7b7" fill-opacity="1.00" stroke-width="54.79" stroke="#000000" stroke-linecap="square" stroke-linejoin="miter" />				<g>					<g>						<path d="M-1603.7,386.595 C-1669.14,371.477 -1750.6,292.929 -1830.16,157.639 C-1916.59,10.9274 -1981.85,-169.748 -2013.88,-334.307 C-2015.07,-330.217 -2016.26,-326.128 -2017.17,-321.216 C-2049.69,-175.766 -1983.45,99.2729 -1868.97,293.312 C-1755.94,486.009 -1637.9,526.194 -1603.7,386.595 Z " fill="#000000" fill-opacity="1.00" />						<path d="M-1189.31,354.751 C-1302.45,386.984 -1449.78,353.463 -1600.03,248.489 C-1763.23,134.774 -1894.07,-37.2736 -1966.54,-215.282 C-1968.13,-209.312 -1969.72,-203.341 -1970.74,-196.578 C-2010.3,8.04395 -1867.53,295.687 -1651.4,445.955 C-1437.87,595.688 -1232.39,553.473 -1189.31,354.751 Z " fill="#000000" fill-opacity="1.00" />						<path d="M-1356.94,489.318 C-1401.68,513.505 -1476.51,510.415 -1568.33,474.833 C-1668.01,436.324 -1765.65,368.397 -1837.87,292.878 C-1837.29,295.746 -1836.7,298.614 -1835.69,301.797 C-1808.94,398.836 -1680.49,518.728 -1548.56,569.576 C-1417.94,620.396 -1333.1,583.948 -1356.94,489.318 Z " fill="#000000" fill-opacity="1.00" />					</g>					<g>						<path d="M-1322.25,364.617 C-1389.16,370.458 -1490.91,320.922 -1608.37,216.83 C-1735.9,103.998 -1853.79,-47.6758 -1935.09,-194.288 C-1934.96,-190.029 -1934.83,-185.771 -1934.18,-180.819 C-1920.17,-32.4397 -1772.19,208.678 -1603.37,357.858 C-1436.33,506.205 -1311.65,507.954 -1322.25,364.617 Z " fill="#000000" fill-opacity="1.00" />						<path d="M-937.977,206.304 C-1035.62,271.915 -1186.1,285.553 -1361.44,232.137 C-1551.79,174.406 -1729.38,51.1996 -1853.3,-95.7101 C-1852.97,-89.5411 -1852.63,-83.3719 -1851.51,-76.6256 C-1825.92,130.209 -1601.27,359.67 -1349.28,435.812 C-1099.93,512.247 -917.557,408.615 -937.977,206.304 Z " fill="#000000" fill-opacity="1.00" />						<path d="M-1055.83,386.078 C-1090.91,422.906 -1163.03,443.084 -1261.36,437.613 C-1368.05,431.783 -1481.9,397.346 -1573.92,347.835 C-1572.48,350.382 -1571.04,352.93 -1569.09,355.643 C-1513.67,439.671 -1354.46,514.012 -1213.28,521.612 C-1073.35,529.589 -1003.92,468.712 -1055.83,386.078 Z " fill="#000000" fill-opacity="1.00" />					</g>				</g>				<g>					<g>						<path d="M1628.37,-60.5384 C1693.34,-77.5973 1772.43,-158.534 1847.93,-296.131 C1929.95,-445.349 1989.81,-627.887 2016.93,-793.325 C2018.24,-789.273 2019.56,-785.22 2020.61,-780.339 C2057.44,-635.92 1999.41,-359.032 1890.76,-161.673 C1783.51,34.3021 1666.72,77.9812 1628.37,-60.5384 Z " fill="#000000" fill-opacity="1.00" />						<path d="M1213.22,-80.0404 C1327.27,-51.1871 1473.54,-89.077 1620.61,-198.474 C1780.35,-316.995 1906.01,-492.859 1973.15,-672.945 C1974.92,-667.024 1976.69,-661.104 1977.9,-654.374 C2023.54,-451.019 1889.39,-159.256 1677.82,-2.62398 C1468.84,153.395 1262.2,117.313 1213.22,-80.0404 Z " fill="#000000" fill-opacity="1.00" />						<path d="M1384.78,49.4803 C1430.23,72.3256 1504.93,67.0108 1595.65,28.7126 C1694.14,-12.745 1789.72,-83.5474 1859.66,-161.181 C1859.16,-158.297 1858.66,-155.414 1857.74,-152.202 C1833.89,-54.4101 1709.07,69.2513 1578.71,124.002 C1449.66,178.685 1363.77,144.777 1384.78,49.4803 Z " fill="#000000" fill-opacity="1.00" />					</g>					<g>						<path d="M1346.4,-74.1331 C1413.46,-70.2864 1513.69,-122.827 1628,-230.368 C1752.11,-346.944 1865.44,-502.058 1942.34,-651.024 C1942.34,-646.764 1942.34,-642.504 1941.83,-637.534 C1932.24,-488.804 1791.51,-243.39 1627.2,-89.2541 C1464.65,63.9973 1340.07,69.4558 1346.4,-74.1331 Z " fill="#000000" fill-opacity="1.00" />						<path d="M957.587,-220.944 C1057.14,-158.267 1207.96,-149.112 1381.63,-207.721 C1570.17,-271.089 1744.02,-399.525 1863.52,-550.057 C1863.37,-543.88 1863.22,-537.704 1862.3,-530.927 C1842.87,-323.423 1625.14,-87.3796 1375.54,-3.77477 C1128.57,80.0448 943.195,-18.1143 957.587,-220.944 Z " fill="#000000" fill-opacity="1.00" />						<path d="M1080.74,-44.7559 C1116.9,-8.98787 1189.58,9.03583 1287.71,0.642041 C1394.18,-8.36035 1506.96,-46.1692 1597.46,-98.3963 C1596.1,-95.807 1594.74,-93.2178 1592.87,-90.448 C1539.97,-4.80846 1383.04,74.2368 1242.15,86.0343 C1102.52,98.1707 1031.31,39.3859 1080.74,-44.7559 Z " fill="#000000" fill-opacity="1.00" />					</g>				</g>				<path d="M1716,229.115 C1786.07,1041.53 1114.06,1762.97 215.032,1840.51 C-683.999,1918.05 -1469.61,1322.31 -1539.67,509.901 C-1609.74,-302.51 -937.732,-1023.96 -38.7014,-1101.49 C860.329,-1179.03 1645.94,-583.296 1716,229.115 Z " fill="#ffffff" fill-opacity="1.00" stroke-width="54.79" stroke="#000000" stroke-linecap="square" stroke-linejoin="miter" />				<path d="M-896.468,1261.43 C-440.121,1278.78 -98.5295,2027.37 -133.018,2934.05 C-167.506,3840.73 -564.976,4561.2 -1021.32,4543.85 C-1477.67,4526.49 -2394.76,3786.66 -2360.27,2879.98 C-2325.78,1973.3 -1352.82,1244.07 -896.468,1261.43 Z " fill="#000000" fill-opacity="1.00" />				<path d="M1081.43,1353.91 C1314.95,1362.79 1476.1,2104.51 1441.61,3011.19 C1407.12,3917.88 1190.09,4645.21 956.573,4636.33 C723.055,4627.44 266.847,3905.15 301.335,2998.47 C335.823,2091.79 847.91,1345.02 1081.43,1353.91 Z " fill="#ffffff" fill-opacity="1.00" />				<path d="M-753.941,1465.49 C-841.432,1430.86 -1000.52,1456.79 -1205.11,1549.82 C-1427.14,1650.59 -1653.52,1807.46 -1828.38,1972.16 C-1826.31,1966.48 -1824.23,1960.81 -1821.15,1954.41 C-1736.1,1760.41 -1429.32,1495.24 -1135.48,1362.11 C-844.402,1229.37 -675.742,1276.9 -753.941,1465.49 Z " fill="#000000" fill-opacity="1.00" />				<path d="M-53.3099,1585.94 C-379.616,1574.34 -689.774,1599.1 -978.059,1655.84 C-2684.3,1925.28 -3781.05,3078.31 -3588.1,4401.05 C-3504.39,4974.89 -3255.61,5370.58 -2938.67,5627.24 C-2312.85,6201.64 -975.863,6078.73 532.351,6067.49 C2612.28,6051.99 4234.12,6254.7 4221.58,4573.2 C4209.05,2891.69 2510.84,1541.89 430.909,1557.39 C266.789,1558.61 105.171,1568.3 -53.3099,1585.94 Z " fill="#24682c" fill-opacity="1.00" />				<path d="M213.977,1194.57 C95.533,1070.66 -36.3435,768.878 -67.68,628.948 C-101.195,481.647 -80.3064,307.094 43.255,185.108 C75.0669,153.701 108.602,130.47 141.93,115.381 C155.761,108.178 170.78,103.012 186.717,99.9327 C230.287,89.6207 271.951,93.694 307.168,112.076 C335.892,122.359 365.332,137.806 394.517,158.59 C536.588,259.764 585.265,429.513 575.627,580.953 C563.325,785.219 402.128,1345.94 260.057,1244.76 C244.699,1233.83 229.232,1216.74 213.977,1194.57 L213.977,1194.57 Z " fill="#ff5e6e" fill-opacity="1.00" stroke-width="32.10" stroke="#000000" stroke-linecap="square" stroke-linejoin="miter" />				<path d="M-271.203,-958.867 C-630.953,-1162.5 -1583.8,-371.265 -1433.73,108.954 C-1288.44,571.136 -662.547,583.966 -358.693,464.911 C126.1,277.442 71.8285,-764.698 -271.203,-958.867 Z " fill="#000000" fill-opacity="1.00" />				<g>					<path d="M-973.25,-175.615 C-707.006,-389.263 -493.289,-447.481 -113.436,-420.804 " fill="none" stroke-width="52.51" stroke="#ffffff" stroke-linecap="round" stroke-linejoin="round" />					<path d="M138.81,111.122 C-41.3773,280.585 -189.602,316.322 -457.173,264.609 " fill="none" stroke-width="52.51" stroke="#000000" stroke-linecap="round" stroke-linejoin="round" />					<path d="M262.145,93.8374 C441.389,197 576.773,221.182 807.634,196.802 " fill="none" stroke-width="52.51" stroke="#000000" stroke-linecap="round" stroke-linejoin="round" />					<path d="M-882.767,123.559 C-630.877,-93.9636 -439.942,-228.353 -113.517,-421.006 " fill="none" stroke-width="52.51" stroke="#ffffff" stroke-linecap="round" stroke-linejoin="round" />					<path d="M1141.7,-695.906 C884.078,-644.643 706.516,-594.238 424.508,-494.018 " fill="none" stroke-width="52.51" stroke="#000000" stroke-linecap="round" stroke-linejoin="round" />					<path d="M1184.07,-332.16 C926.452,-426.225 739.125,-465.6 428.535,-494.069 " fill="none" stroke-width="52.51" stroke="#000000" stroke-linecap="round" stroke-linejoin="round" />				</g>				<path d="M-840.702,1604.37 C-734.792,1608.8 -582.922,1708.35 -414.965,1897.81 C-232.592,2103.21 -71.4397,2368.35 33.1007,2617.96 C33.5683,2611.17 34.036,2604.38 33.7914,2596.37 C35.1079,2357.75 -159.195,1944.32 -400.657,1672.71 C-639.451,1402.78 -834.814,1374.45 -840.702,1604.37 Z " fill="#000000" fill-opacity="1.00" />				<path d="M-948.518,1442.75 C-842.609,1447.18 -690.738,1546.73 -522.782,1736.19 C-340.409,1941.6 -179.256,2206.74 -74.7161,2456.35 C-74.2484,2449.55 -73.7807,2442.76 -74.0254,2434.76 C-72.7089,2196.13 -267.011,1782.71 -508.474,1511.09 C-747.268,1241.16 -942.631,1212.84 -948.518,1442.75 Z " fill="#000000" fill-opacity="1.00" />				<path d="M-948.1,1994.73 L-755.723,1394.5 L-1347.34,1613.86 L-948.1,1994.73 Z " fill="#000000" fill-opacity="1.00" />				<path d="M-946.63,2210.94 C-903.315,2278.01 -864.852,2356.87 -835.835,2451.01 C-670.973,2989.54 -431.149,3083.03 -171.827,2983.54 C158.921,2856.5 76.7595,2246.25 -298.179,1934.53 C-624.815,1663.87 -940.359,1612.19 -1197.36,1629.55 C-1397.83,1642.02 -1437.48,1644.82 -1410.15,1734.81 C-1287.44,1816.98 -1142.72,1947.69 -1039.15,2075.26 C-996.579,2127.5 -965.696,2173.39 -946.63,2210.94 Z " fill="#000000" fill-opacity="1.00" />				<path d="M-528.027,1487.7 C-469.476,1522.94 -527.368,1615.6 -455.887,1683.5 C-380.632,1755.65 -297.556,1871.44 -331.03,1986.97 C-364.505,2102.51 -412.719,2148.97 -479.445,2122.11 C-529.638,2101.9 -483.249,1973.04 -615.781,1877.82 C-670.66,1838.57 -939.222,1837.5 -868.769,1625.01 C-804.159,1435.55 -589.293,1450.69 -528.027,1487.7 Z " fill="#000000" fill-opacity="1.00" />				<path d="M250.91,123.709 C147.065,162.193 -55.54,-27.3068 16.7312,-131.073 C86.515,-230.927 252.573,-223.705 324.668,-192.498 C439.863,-143.256 354.323,85.3858 250.91,123.709 Z " fill="#000000" fill-opacity="1.00" />				<g>					<path d="M-1435.93,417.385 C-1656.75,485.981 -1954.06,649.121 -1954.06,649.121 C-1954.06,649.121 -1789.75,492.186 -1385.31,353.117 C-977.805,213.131 -437.178,156.018 -437.178,156.018 L-531.553,229.831 C-694.898,234.8 -1205.32,348.1 -1435.93,417.385 Z " fill="#000000" fill-opacity="1.00" />					<path d="M-1484.38,744.911 C-1712.5,887.176 -1998.76,1158.33 -1998.76,1158.33 C-1998.76,1158.33 -1860.25,933.377 -1446.4,657.703 C-1029.38,380.097 -438.211,156.434 -438.211,156.434 L-522.583,267.279 C-704.824,321.038 -1245.46,598.985 -1484.38,744.911 Z " fill="#000000" fill-opacity="1.00" />					<path d="M1667.35,39.9754 C1867.98,38.4824 2156.78,94.9899 2156.78,94.9899 C2156.78,94.9899 1979.58,8.55574 1608.56,0.186561 C1234.77,-8.13633 772.764,87.143 772.764,87.143 L870.242,123.291 C1006.59,84.3454 1458.44,43.4775 1667.35,39.9754 Z " fill="#000000" fill-opacity="1.00" />					<path d="M1786.53,328.882 C2010.71,393.422 2314.03,551.714 2314.03,551.714 C2314.03,551.714 2145,396.88 1734.12,265.123 C1320.14,132.506 773.631,86.2821 773.631,86.2821 L870.378,158.747 C1035.24,160.32 1552.47,263.853 1786.53,328.882 Z " fill="#000000" fill-opacity="1.00" />				</g>				<g>					<path d="M-337.873,2963.57 C-332.705,3012.37 -347.701,3085.07 -347.701,3085.07 C-347.701,3085.07 -318.701,3038.28 -324.001,2947.58 C-329.383,2856.21 -376.414,2747.71 -376.414,2747.71 L-388.007,2772.97 C-369.986,2804.53 -344,2912.84 -337.873,2963.57 Z " fill="#000000" fill-opacity="1.00" />					<path d="M-328.582,2943.82 C-323.413,2992.61 -338.41,3065.32 -338.41,3065.32 C-338.41,3065.32 -309.409,3018.53 -314.71,2927.83 C-320.091,2836.45 -367.122,2727.96 -367.122,2727.96 L-378.715,2753.21 C-360.694,2784.78 -334.709,2893.09 -328.582,2943.82 Z " fill="#000000" fill-opacity="1.00" />				</g>				<g>					<path d="M-110.752,2915.64 C-106.309,2967.44 -123.732,3044.14 -123.732,3044.14 C-123.732,3044.14 -92.0214,2995.19 -95.7187,2898.99 C-99.4878,2802.08 -147.016,2686.15 -147.016,2686.15 L-159.831,2712.67 C-141.408,2746.49 -116.17,2861.77 -110.752,2915.64 Z " fill="#000000" fill-opacity="1.00" />					<path d="M-99.7946,2893.57 C-95.351,2945.37 -112.775,3022.07 -112.775,3022.07 C-112.775,3022.07 -81.0638,2973.12 -84.7612,2876.92 C-88.5303,2780.01 -136.058,2664.08 -136.058,2664.08 L-148.873,2690.6 C-130.45,2724.41 -105.212,2839.7 -99.7946,2893.57 Z " fill="#000000" fill-opacity="1.00" />				</g>				<path d="M1015.3,1478.61 C1062.24,1639.38 1418.45,1744.19 1559.6,2280.05 C1721.32,2898.02 1948.71,3005.58 2192.3,2891.79 C2502.98,2746.5 2418.48,2046.36 2061.1,1688.31 C1749.77,1377.4 1451.4,1317.7 1209.06,1337.28 C1008.05,1352.22 978.506,1354.84 1015.3,1478.61 Z " fill="#ffffff" fill-opacity="1.00" stroke-width="39.42" stroke="#000000" stroke-linecap="square" stroke-linejoin="miter" />				<g>					<path d="M1980.75,2849.7 C1984.07,2902.83 1964.41,2980.94 1964.41,2980.94 C1964.41,2980.94 1998.03,2931.58 1996.54,2833.01 C1994.99,2733.71 1949.09,2613.9 1949.09,2613.9 L1935.34,2640.74 C1953.4,2675.8 1976.49,2794.42 1980.75,2849.7 Z " fill="#000000" fill-opacity="1.00" />					<path d="M1986.7,2840.87 C1988.27,2896.89 1964.77,2978.35 1964.77,2978.35 C1964.77,2978.35 2001.93,2927.64 2003.91,2823.89 C2005.87,2719.37 1961.91,2591.66 1961.91,2591.66 L1946.47,2619.4 C1964.2,2656.94 1984.21,2782.57 1986.7,2840.87 Z " fill="#000000" fill-opacity="1.00" />				</g>				<g>					<path d="M2245.14,2783.55 C2246.71,2839.57 2223.21,2921.03 2223.21,2921.03 C2223.21,2921.03 2260.37,2870.32 2262.35,2766.57 C2264.31,2662.05 2220.35,2534.34 2220.35,2534.34 L2204.91,2562.08 C2222.64,2599.62 2242.65,2725.25 2245.14,2783.55 Z " fill="#000000" fill-opacity="1.00" />					<path d="M2236.11,2807.57 C2238.5,2863.92 2216.02,2946.25 2216.02,2946.25 C2216.02,2946.25 2252.69,2894.67 2253.19,2790.23 C2253.64,2685 2207.56,2557.11 2207.56,2557.11 L2192.42,2585.25 C2210.81,2622.77 2232.76,2748.92 2236.11,2807.57 Z " fill="#000000" fill-opacity="1.00" />				</g>				<path d="M-466.103,1514.56 C-333.674,1646.76 -180.307,1871.97 -79.0059,2111.67 C52.1266,2421.02 28.7193,2596.44 -131.165,2527.06 C-291.049,2457.68 -425.453,2250.43 -477.807,2120.07 C-545.279,1951.91 -450.532,1927.92 -604.322,1642.18 C-693.883,1475.39 -690.308,1416.75 -644.764,1402.13 C-616.929,1393.63 -551.472,1429.07 -466.103,1514.56 Z " fill="#ffffff" fill-opacity="1.00" />				<path d="M1188.94,1509.86 C1279.08,1435.73 1313.06,1328.09 1264.83,1269.45 C1216.6,1210.82 1104.43,1223.38 1014.29,1297.51 C924.152,1371.65 890.174,1479.28 938.401,1537.92 C986.627,1596.56 1098.8,1584 1188.94,1509.86 Z " fill="#ffffff" fill-opacity="1.00" />				<path d="M1095.55,1602.06 C1234.82,1631.39 1358.77,1602.73 1372.39,1538.05 C1386.01,1473.37 1284.15,1397.16 1144.87,1367.84 C1005.6,1338.51 881.662,1367.17 868.042,1431.85 C854.422,1496.53 956.282,1572.73 1095.55,1602.06 Z " fill="#ffffff" fill-opacity="1.00" />				<path d="M1718.75,371.839 C1718.75,371.839 1482.93,446.02 1397.4,618.303 C1293.63,828.038 1292.63,1012.19 1284.82,1174.84 C1277.1,1327.09 1290.1,1347.75 1290.1,1347.75 C1290.1,1347.75 1493.5,1165.64 1606.18,902.847 C1743.67,582.195 1718.75,371.839 1718.75,371.839 Z " fill="#000000" fill-opacity="1.00" />			</g>			<path d="M-3548.3,2964.05 L-3548.3,-2793.3 L-9305.64,-2793.3 L-9305.64,2964.05 L-3548.3,2964.05 Z M-4383.11,2129.24 L-8470.84,2129.24 L-8470.84,-1958.49 L-4383.11,-1958.49 L-4383.11,2129.24 Z " fill="#000000" fill-opacity="1.00" />		</g>	</svg>