<svg width="256" height="40" viewBox="0 0 256 40" fill="none" xmlns="http://www.w3.org/2000/svg">
<path d="M69.6363 4.01151C69.2819 4.02417 68.8643 4.10009 68.3708 4.23929C67.8773 4.37848 67.4724 4.55564 67.1434 4.74546C66.6878 5.02385 66.3208 5.39082 66.0551 5.83372C65.7767 6.27662 65.511 6.79544 65.2452 7.40284C64.3468 9.52875 63.0054 12.8442 61.2085 17.3491C59.4116 21.854 57.5641 26.5487 55.666 31.4332H53.9956C52.0722 26.2576 50.212 21.2592 48.4151 16.4506C46.6182 11.642 45.4034 8.40253 44.758 6.70686C44.5935 6.28927 44.3784 5.9223 44.1127 5.6186C43.8469 5.30224 43.4926 5.0112 43.0497 4.72015C42.6828 4.49237 42.2905 4.32787 41.8476 4.21398C41.4047 4.10009 40.9997 4.02417 40.6201 3.99886V2.59424H52.4139V4.02417C51.4142 4.07478 50.5663 4.17602 49.8704 4.32787C49.187 4.47972 48.8327 4.7328 48.8327 5.11243C48.8327 5.26428 48.858 5.42878 48.9086 5.63125C48.9593 5.83372 49.0099 5.99822 49.0478 6.11211C49.5413 7.42815 50.3512 9.56672 51.4521 12.5278C52.5531 15.4889 54.1475 19.7154 56.1848 25.1947C57.1972 22.7145 58.374 19.7913 59.7027 16.4127C61.0314 13.034 61.9172 10.7183 62.3727 9.46548C62.8156 8.25068 63.0687 7.40284 63.1446 6.93464C63.2332 6.45378 63.2712 6.07415 63.2712 5.7831C63.2712 5.4794 63.132 5.21366 62.8536 5.0112C62.5752 4.80873 62.2082 4.63157 61.7653 4.47972C61.3224 4.34052 60.8795 4.23929 60.424 4.17602C59.9684 4.11275 59.5129 4.04947 59.0447 4.01151V2.59424H69.6489V4.01151H69.6363Z" fill="#20201F"/>
<path d="M79.8351 31.0917H70.2811V29.763C70.5849 29.7377 70.9012 29.7123 71.2302 29.687C71.5592 29.6617 71.8376 29.6111 72.078 29.5225C72.4577 29.396 72.7361 29.1935 72.9132 28.8898C73.0904 28.5861 73.179 28.1938 73.179 27.713V15.5017C73.179 15.0714 73.0777 14.6791 72.8879 14.3248C72.6981 13.9705 72.4197 13.6668 72.078 13.4264C71.825 13.2619 71.458 13.1227 70.9771 13.0214C70.4963 12.9075 70.0534 12.8316 69.6484 12.8063V11.4903L76.6336 11.0474L76.912 11.3258V27.4725C76.912 27.9408 77.0005 28.333 77.1777 28.6367C77.3549 28.9404 77.6459 29.1682 78.0255 29.3201C78.3166 29.4466 78.6076 29.5352 78.886 29.6111C79.1644 29.687 79.4808 29.7377 79.8224 29.763V31.0917H79.8351Z" fill="#20201F"/>
<path d="M77.4823 5.16305C77.4823 5.9223 77.2292 6.59297 76.723 7.16241C76.2169 7.73185 75.5968 8.01025 74.8629 8.01025C74.1795 8.01025 73.5848 7.74451 73.0913 7.20038C72.5851 6.65624 72.332 6.03619 72.332 5.3402C72.332 4.60626 72.5851 3.96089 73.0913 3.41676C73.5975 2.87263 74.1795 2.59424 74.8629 2.59424C75.6221 2.59424 76.2548 2.84732 76.7357 3.36615C77.2292 3.88497 77.4823 4.47972 77.4823 5.16305Z" fill="#20201F"/>
<path d="M104.157 31.0917H94.4762V29.763C94.7799 29.7377 95.1216 29.7124 95.4885 29.6871C95.8555 29.6618 96.1592 29.6112 96.3997 29.5226C96.7793 29.3961 97.0577 29.1936 97.2348 28.8899C97.412 28.5862 97.5006 28.1939 97.5006 27.713V17.5264C97.5006 16.1218 97.1716 15.0335 96.5009 14.2743C95.8302 13.515 95.033 13.1354 94.0713 13.1354C93.3626 13.1354 92.7046 13.2493 92.1225 13.4644C91.5278 13.6795 91.0089 13.9579 90.5534 14.2743C90.1105 14.578 89.7562 14.9196 89.4904 15.2739C89.2247 15.6283 89.0349 15.9193 88.921 16.1218V27.5106C88.921 27.9661 89.0096 28.3458 89.1994 28.6368C89.3892 28.9279 89.6676 29.1556 90.0472 29.3201C90.3256 29.4593 90.6293 29.5606 90.9583 29.6238C91.2873 29.6871 91.629 29.7377 91.9707 29.763V31.0917H82.2649V29.763C82.5686 29.7377 82.8849 29.7124 83.214 29.6871C83.543 29.6618 83.8214 29.6112 84.0618 29.5226C84.4414 29.3961 84.7198 29.1936 84.897 28.8899C85.0741 28.5862 85.1627 28.1939 85.1627 27.713V15.5017C85.1627 15.0462 85.0615 14.6286 84.8717 14.249C84.6818 13.8693 84.4034 13.553 84.0618 13.3125C83.8087 13.148 83.505 13.0341 83.1633 12.9582C82.809 12.8823 82.442 12.8317 82.0371 12.8064V11.4903L88.63 11.0474L88.9084 11.3258V14.1224H89.0096C89.3259 13.8061 89.7309 13.4138 90.2117 12.9709C90.6926 12.528 91.1482 12.161 91.5784 11.8826C92.0719 11.5663 92.6667 11.2879 93.35 11.0854C94.0333 10.8703 94.8052 10.769 95.653 10.769C97.5512 10.769 98.9685 11.3638 99.8796 12.5406C100.803 13.7301 101.259 15.2993 101.259 17.2733V27.5739C101.259 28.0421 101.335 28.4217 101.499 28.7127C101.664 29.0038 101.93 29.2189 102.322 29.3834C102.638 29.5226 102.917 29.6112 103.157 29.6618C103.397 29.7124 103.714 29.763 104.131 29.7883V31.0917H104.157Z" fill="#20201F"/>
<path d="M125.34 30.7242C124.707 30.952 124.163 31.1292 123.682 31.281C123.201 31.4329 122.67 31.4961 122.063 31.4961C121.012 31.4961 120.19 31.2557 119.557 30.7622C118.937 30.2687 118.532 29.56 118.367 28.6236H118.241C117.368 29.5853 116.431 30.3193 115.444 30.8381C114.445 31.3443 113.243 31.5974 111.838 31.5974C110.357 31.5974 109.13 31.1418 108.168 30.2307C107.206 29.3196 106.726 28.1301 106.726 26.6622C106.726 25.903 106.839 25.2196 107.042 24.6122C107.257 24.0048 107.573 23.4734 108.004 22.9798C108.333 22.5749 108.776 22.2206 109.332 21.9042C109.876 21.5879 110.395 21.3348 110.876 21.1576C111.484 20.9299 112.698 20.5123 114.546 19.8922C116.381 19.2722 117.634 18.7913 118.266 18.4496V16.4503C118.266 16.2731 118.228 15.9441 118.152 15.4506C118.076 14.9571 117.925 14.4889 117.684 14.046C117.418 13.5524 117.039 13.1222 116.545 12.7552C116.052 12.3883 115.368 12.1984 114.47 12.1984C113.85 12.1984 113.28 12.2997 112.749 12.5148C112.218 12.7173 111.851 12.945 111.635 13.1728C111.635 13.4386 111.699 13.8308 111.825 14.3623C111.952 14.8811 112.015 15.362 112.015 15.8049C112.015 16.2731 111.8 16.7033 111.382 17.0956C110.965 17.4879 110.37 17.6777 109.623 17.6777C108.953 17.6777 108.459 17.4373 108.143 16.9691C107.827 16.5009 107.675 15.9567 107.675 15.3747C107.675 14.7546 107.89 14.1725 108.333 13.6031C108.776 13.0336 109.332 12.5401 110.028 12.0972C110.636 11.7176 111.357 11.4012 112.218 11.1481C113.078 10.8824 113.913 10.7559 114.723 10.7559C115.849 10.7559 116.824 10.8318 117.659 10.9836C118.494 11.1355 119.253 11.4645 119.937 11.9833C120.62 12.4768 121.139 13.1475 121.493 14.008C121.847 14.8558 122.025 15.9567 122.025 17.2854C122.025 19.1962 121.999 20.8919 121.961 22.3724C121.923 23.853 121.898 25.4727 121.898 27.219C121.898 27.7378 121.987 28.1554 122.164 28.4591C122.341 28.7628 122.619 29.0286 122.999 29.2437C123.201 29.3576 123.518 29.4335 123.948 29.4461C124.378 29.4588 124.834 29.4715 125.289 29.4715V30.7242H125.34ZM118.33 20.12C117.191 20.4616 116.191 20.7907 115.343 21.107C114.483 21.4234 113.685 21.8283 112.951 22.3092C112.281 22.7647 111.749 23.3088 111.37 23.9289C110.977 24.549 110.788 25.2956 110.788 26.156C110.788 27.2696 111.079 28.0921 111.661 28.611C112.243 29.1298 112.977 29.3955 113.875 29.3955C114.824 29.3955 115.659 29.1678 116.381 28.6995C117.102 28.2313 117.709 27.6872 118.203 27.0545L118.33 20.12Z" fill="#20201F"/>
<path d="M141.955 31.7748C140.259 31.7748 138.627 31.4332 137.071 30.7751C135.514 30.1045 134.135 29.1427 132.933 27.8773C131.743 26.6119 130.794 25.0807 130.085 23.2712C129.377 21.4616 129.022 19.4116 129.022 17.1339C129.022 14.8561 129.377 12.7935 130.073 10.9333C130.769 9.07314 131.73 7.47871 132.958 6.13736C134.173 4.80867 135.615 3.78368 137.273 3.06238C138.931 2.34109 140.702 1.97412 142.588 1.97412C143.992 1.97412 145.258 2.15128 146.397 2.49294C147.536 2.84726 148.611 3.32812 149.649 3.96083L150.471 2.59418H152.078L152.256 12.7555H150.611C150.395 11.7685 150.079 10.6929 149.649 9.52869C149.219 8.37716 148.725 7.39013 148.143 6.59291C147.498 5.68181 146.738 4.97317 145.853 4.45435C144.967 3.93553 143.967 3.68244 142.828 3.68244C141.537 3.68244 140.323 3.97349 139.209 4.54293C138.096 5.12502 137.121 5.97286 136.311 7.09908C135.539 8.18735 134.932 9.56666 134.489 11.237C134.046 12.9074 133.831 14.7802 133.831 16.8428C133.831 18.665 134.059 20.3354 134.527 21.8539C134.983 23.3724 135.641 24.7138 136.501 25.8653C137.362 27.0042 138.374 27.89 139.538 28.5353C140.702 29.1807 142.018 29.4971 143.461 29.4971C144.549 29.4971 145.536 29.3326 146.447 28.9909C147.358 28.6492 148.143 28.1937 148.814 27.6369C149.484 27.0421 150.066 26.3841 150.573 25.6249C151.079 24.8783 151.496 24.0557 151.813 23.1699L153.319 23.8912C152.167 26.7131 150.649 28.7378 148.738 29.94C146.827 31.1674 144.575 31.7748 141.955 31.7748Z" fill="#20201F"/>
<path d="M174.046 30.7242C173.413 30.952 172.869 31.1292 172.388 31.281C171.907 31.4329 171.376 31.4961 170.769 31.4961C169.718 31.4961 168.896 31.2557 168.263 30.7622C167.643 30.2687 167.238 29.56 167.074 28.6236H166.947C166.074 29.5853 165.137 30.3193 164.15 30.8381C163.151 31.3443 161.949 31.5974 160.544 31.5974C159.063 31.5974 157.836 31.1418 156.874 30.2307C155.913 29.3196 155.432 28.1301 155.432 26.6622C155.432 25.903 155.546 25.2196 155.748 24.6122C155.963 24.0048 156.279 23.4734 156.71 22.9798C157.039 22.5749 157.482 22.2206 158.038 21.9042C158.583 21.5879 159.101 21.3348 159.582 21.1576C160.19 20.9299 161.404 20.5123 163.252 19.8922C165.087 19.2722 166.34 18.7913 166.972 18.4496V16.4503C166.972 16.2731 166.934 15.9441 166.858 15.4506C166.782 14.9571 166.631 14.4889 166.39 14.046C166.124 13.5524 165.745 13.1222 165.251 12.7552C164.758 12.3883 164.074 12.1984 163.176 12.1984C162.556 12.1984 161.987 12.2997 161.455 12.5148C160.924 12.7173 160.557 12.945 160.341 13.1728C160.341 13.4386 160.405 13.8308 160.531 14.3623C160.658 14.8811 160.721 15.362 160.721 15.8049C160.721 16.2731 160.506 16.7033 160.088 17.0956C159.671 17.4879 159.076 17.6777 158.329 17.6777C157.659 17.6777 157.165 17.4373 156.849 16.9691C156.533 16.5009 156.381 15.9567 156.381 15.3747C156.381 14.7546 156.596 14.1725 157.039 13.6031C157.469 13.0463 158.038 12.5401 158.734 12.0972C159.342 11.7176 160.063 11.4012 160.924 11.1481C161.784 10.8824 162.619 10.7559 163.429 10.7559C164.555 10.7559 165.53 10.8318 166.365 10.9836C167.2 11.1355 167.959 11.4645 168.643 11.9833C169.326 12.4768 169.845 13.1475 170.199 14.008C170.553 14.8558 170.731 15.9567 170.731 17.2854C170.731 19.1962 170.705 20.8919 170.667 22.3724C170.629 23.853 170.604 25.4727 170.604 27.219C170.604 27.7378 170.693 28.1554 170.87 28.4591C171.047 28.7628 171.325 29.0286 171.705 29.2437C171.907 29.3576 172.224 29.4335 172.654 29.4461C173.084 29.4588 173.54 29.4715 173.995 29.4715V30.7242H174.046ZM167.048 20.12C165.909 20.4616 164.91 20.7907 164.062 21.107C163.201 21.4234 162.404 21.8283 161.67 22.3092C160.999 22.7647 160.468 23.3088 160.088 23.9289C159.696 24.549 159.506 25.2956 159.506 26.156C159.506 27.2696 159.797 28.0921 160.379 28.611C160.962 29.1298 161.695 29.3955 162.594 29.3955C163.543 29.3955 164.378 29.1678 165.099 28.6995C165.821 28.2313 166.428 27.6872 166.922 27.0545L167.048 20.12Z" fill="#20201F"/>
<path d="M194.115 13.6288C194.9 14.5652 195.52 15.6535 195.95 16.8936C196.381 18.1337 196.608 19.551 196.608 21.1454C196.608 22.7145 196.343 24.1444 195.824 25.4352C195.305 26.7259 194.609 27.8268 193.761 28.7379C192.863 29.6617 191.863 30.3703 190.775 30.8638C189.674 31.3573 188.51 31.6104 187.282 31.6104C186.093 31.6104 185.118 31.4712 184.346 31.2055C183.587 30.9398 182.967 30.6234 182.474 30.2564H182.309V36.2166C182.309 36.6974 182.398 37.1024 182.587 37.4187C182.777 37.7351 183.068 37.9755 183.448 38.1274C183.764 38.2539 184.233 38.3678 184.827 38.4817C185.422 38.5956 185.916 38.6588 186.308 38.6715V40.0002H175.248V38.6715C175.666 38.6462 176.058 38.6082 176.45 38.5703C176.842 38.5323 177.184 38.4564 177.5 38.3678C177.905 38.2286 178.184 38.0008 178.348 37.6591C178.513 37.3301 178.589 36.9252 178.589 36.4697V15.4257C178.589 15.0207 178.488 14.6411 178.285 14.2615C178.083 13.8819 177.83 13.5908 177.5 13.363C177.26 13.1985 176.918 13.0846 176.501 12.9961C176.071 12.9075 175.653 12.8569 175.261 12.8316V11.4902L182.005 11.0473L182.284 11.2877V13.5149L182.448 13.5528C183.144 12.7556 184.005 12.085 185.042 11.5408C186.08 11.0094 187.092 10.731 188.117 10.731C189.345 10.731 190.471 10.9967 191.496 11.5155C192.496 12.047 193.382 12.7556 194.115 13.6288ZM190.838 27.8774C191.37 27.0423 191.774 26.0805 192.028 24.9796C192.281 23.8787 192.407 22.6512 192.407 21.3099C192.407 20.3229 192.306 19.3105 192.091 18.2729C191.876 17.2479 191.547 16.3494 191.091 15.5775C190.636 14.8056 190.041 14.1729 189.307 13.692C188.573 13.2112 187.687 12.9708 186.662 12.9708C185.675 12.9708 184.827 13.1859 184.131 13.6288C183.435 14.059 182.828 14.5778 182.322 15.1852V26.8904C182.448 27.2574 182.638 27.6243 182.917 28.0166C183.195 28.4089 183.499 28.7379 183.828 29.0163C184.245 29.3453 184.688 29.6237 185.169 29.8262C185.65 30.0287 186.245 30.1425 186.941 30.1425C187.687 30.1425 188.408 29.9401 189.104 29.5478C189.788 29.1555 190.37 28.5987 190.838 27.8774Z" fill="#20201F"/>
<path d="M209.111 31.0912H199.558V29.7625C199.861 29.7372 200.178 29.7119 200.507 29.6865C200.836 29.6612 201.114 29.6106 201.354 29.522C201.734 29.3955 202.012 29.193 202.19 28.8893C202.367 28.5856 202.455 28.1933 202.455 27.7125V15.5012C202.455 15.0709 202.354 14.6786 202.164 14.3243C201.974 13.97 201.696 13.6663 201.354 13.4259C201.101 13.2614 200.734 13.1222 200.254 13.0209C199.773 12.907 199.33 12.8311 198.925 12.8058V11.4898L205.91 11.0469L206.188 11.3253V27.4721C206.188 27.9403 206.277 28.3325 206.454 28.6362C206.631 28.9399 206.922 29.1677 207.302 29.3196C207.593 29.4461 207.884 29.5347 208.162 29.6106C208.441 29.6865 208.757 29.7372 209.099 29.7625V31.0912H209.111ZM206.606 3.23922C206.606 3.99847 206.353 4.66915 205.847 5.23858C205.34 5.80803 204.72 6.08642 203.986 6.08642C203.303 6.08642 202.708 5.82068 202.215 5.27655C201.709 4.73242 201.456 4.11236 201.456 3.41638C201.456 2.68243 201.709 2.03707 202.215 1.49293C202.721 0.948803 203.303 0.67041 203.986 0.67041C204.746 0.67041 205.378 0.923495 205.859 1.44232C206.353 1.94849 206.606 2.55589 206.606 3.23922Z" fill="#20201F"/>
<path d="M223.79 30.2181C222.917 30.5851 222.095 30.8888 221.323 31.1292C220.551 31.3823 219.602 31.4962 218.476 31.4962C216.818 31.4962 215.641 31.0786 214.97 30.2434C214.3 29.4082 213.958 28.2314 213.958 26.7002V13.2867H210.39V11.3633H214.047V5.20068H217.704V11.3633H223.386V13.2867H217.742V24.3465C217.742 25.1817 217.767 25.865 217.83 26.4218C217.894 26.9786 218.033 27.4595 218.261 27.8771C218.476 28.2693 218.792 28.5604 219.222 28.7628C219.653 28.9653 220.222 29.0666 220.956 29.0666C221.285 29.0666 221.778 29.0412 222.436 28.978C223.082 28.9147 223.55 28.8388 223.816 28.7502V30.2181H223.79Z" fill="#20201F"/>
<path d="M244.518 30.7242C243.885 30.952 243.341 31.1292 242.86 31.281C242.379 31.4329 241.848 31.4961 241.24 31.4961C240.19 31.4961 239.367 31.2557 238.735 30.7622C238.115 30.2687 237.71 29.56 237.545 28.6236H237.419C236.546 29.5853 235.609 30.3193 234.622 30.8381C233.622 31.3443 232.42 31.5974 231.016 31.5974C229.535 31.5974 228.308 31.1418 227.346 30.2307C226.384 29.3196 225.903 28.1301 225.903 26.6622C225.903 25.903 226.017 25.2196 226.22 24.6122C226.435 24.0048 226.751 23.4734 227.181 22.9798C227.51 22.5749 227.953 22.2206 228.51 21.9042C229.054 21.5879 229.573 21.3348 230.054 21.1576C230.661 20.9299 231.876 20.5123 233.724 19.8922C235.558 19.2722 236.811 18.7913 237.444 18.4496V16.4503C237.444 16.2731 237.406 15.9441 237.33 15.4506C237.254 14.9571 237.102 14.4889 236.862 14.046C236.596 13.5524 236.217 13.1222 235.723 12.7552C235.229 12.3883 234.546 12.1984 233.648 12.1984C233.028 12.1984 232.458 12.2997 231.927 12.5148C231.395 12.7173 231.028 12.945 230.813 13.1728C230.813 13.4386 230.876 13.8308 231.003 14.3623C231.13 14.8811 231.193 15.362 231.193 15.8049C231.193 16.2731 230.978 16.7033 230.56 17.0956C230.142 17.4879 229.548 17.6777 228.801 17.6777C228.13 17.6777 227.637 17.4373 227.321 16.9691C227.004 16.5009 226.852 15.9567 226.852 15.3747C226.852 14.7546 227.067 14.1725 227.51 13.6031C227.941 13.0463 228.51 12.5401 229.206 12.0972C229.813 11.7176 230.535 11.4012 231.395 11.1481C232.256 10.8824 233.091 10.7559 233.901 10.7559C235.027 10.7559 236.001 10.8318 236.837 10.9836C237.672 11.1355 238.431 11.4645 239.114 11.9833C239.798 12.4768 240.316 13.1475 240.671 14.008C241.025 14.8558 241.202 15.9567 241.202 17.2854C241.202 19.1962 241.177 20.8919 241.139 22.3724C241.101 23.853 241.076 25.4727 241.076 27.219C241.076 27.7378 241.164 28.1554 241.341 28.4591C241.519 28.7628 241.797 29.0286 242.177 29.2437C242.379 29.3576 242.695 29.4335 243.126 29.4461C243.556 29.4588 244.012 29.4715 244.467 29.4715V30.7242H244.518ZM237.507 20.12C236.368 20.4616 235.369 20.7907 234.521 21.107C233.66 21.4234 232.863 21.8283 232.129 22.3092C231.459 22.7647 230.927 23.3088 230.547 23.9289C230.155 24.549 229.965 25.2956 229.965 26.156C229.965 27.2696 230.256 28.0921 230.838 28.611C231.421 29.1298 232.154 29.3955 233.053 29.3955C234.002 29.3955 234.837 29.1678 235.558 28.6995C236.28 28.2313 236.887 27.6872 237.381 27.0545L237.507 20.12Z" fill="#20201F"/>
<path d="M255.767 31.0914H246.112V29.7627C246.416 29.7374 246.745 29.7121 247.099 29.6742C247.441 29.6362 247.732 29.5856 247.959 29.5223C248.339 29.3958 248.617 29.1933 248.807 28.8896C248.997 28.5859 249.086 28.1936 249.086 27.7128V4.75799C249.086 4.27713 248.984 3.82158 248.769 3.40399C248.567 2.9864 248.288 2.64473 247.959 2.4043C247.719 2.2398 247.276 2.1006 246.631 1.9614C245.985 1.82221 245.479 1.74628 245.087 1.72097V0.442898L252.528 0L252.806 0.303701V27.4723C252.806 27.9405 252.895 28.3202 253.072 28.6239C253.249 28.9276 253.527 29.1553 253.92 29.3198C254.211 29.459 254.502 29.5603 254.793 29.6235C255.084 29.6868 255.4 29.7374 255.767 29.7627V31.0914Z" fill="#20201F"/>
<path d="M28.7631 3.42529H0V32.1883H28.7631V3.42529Z" fill="#DB2D27"/>
<path d="M0 3.42529L14.3752 32.1883L28.7631 3.42529H0Z" fill="#BDBDBD"/>
</svg>
